<?xml version="1.0" encoding="UTF-8"?>
<!DOCTYPE svg PUBLIC "-//W3C//DTD SVG 1.1//EN" "http://www.w3.org/Graphics/SVG/1.1/DTD/svg11.dtd"><svg version="1.1" viewBox="0 0 20980 21768" preserveAspectRatio="xMidYMid" fill-rule="evenodd" xmlns="http://www.w3.org/2000/svg" xmlns:xlink="http://www.w3.org/1999/xlink"><g visibility="visible" id="Default"><desc>Master slide</desc></g><g visibility="visible" id="page1"><desc>Slide</desc><g><desc>Drawing</desc><g><g style="stroke:none;fill:rgb(92,133,38)"><path d="M 4161,10143 L 4796,10143 4796,10778 4161,10778 4161,10143 Z"/></g><g/></g></g><g><desc>Drawing</desc><g><g style="stroke:none;fill:rgb(53,94,0)"><path d="M 13752,20003 L 13748,19971 13736,19939 13715,19907 13687,19875 13651,19844 13606,19813 13554,19782 13495,19753 13428,19723 13353,19695 13271,19667 13183,19640 13088,19614 12986,19589 12878,19566 12764,19543 12645,19521 12520,19501 12391,19482 12256,19464 12118,19448 11975,19433 11829,19419 11680,19408 11527,19397 11373,19388 11216,19381 11058,19375 10898,19371 10738,19369 10577,19368 10577,19368 10416,19369 10256,19371 10096,19375 9938,19381 9781,19388 9627,19397 9474,19408 9325,19419 9179,19433 9036,19448 8898,19464 8763,19482 8634,19501 8509,19521 8390,19543 8276,19566 8168,19589 8066,19614 7971,19640 7883,19667 7801,19695 7726,19723 7659,19753 7600,19782 7548,19813 7503,19844 7467,19875 7439,19907 7418,19939 7406,19971 7402,20003 7402,20003 7406,20035 7418,20067 7439,20099 7467,20131 7503,20162 7548,20193 7600,20224 7659,20253 7726,20283 7801,20311 7883,20339 7971,20366 8066,20392 8168,20417 8276,20440 8390,20463 8509,20485 8634,20505 8763,20524 8898,20542 9036,20558 9179,20573 9325,20587 9474,20598 9627,20609 9781,20618 9938,20625 10096,20631 10256,20635 10416,20637 10577,20638 10577,20638 10738,20637 10898,20635 11058,20631 11216,20625 11373,20618 11527,20609 11680,20598 11829,20587 11975,20573 12118,20558 12256,20542 12391,20524 12520,20505 12645,20485 12764,20463 12878,20440 12986,20417 13088,20392 13183,20366 13271,20339 13353,20311 13428,20283 13495,20253 13554,20224 13606,20193 13651,20162 13687,20131 13715,20099 13736,20067 13748,20035 13752,20003 Z"/></g><g/></g></g><g><desc>Drawing</desc><g><g style="stroke:none;fill:rgb(92,133,38)"><path d="M 9942,18098 L 11212,18098 11212,20003 9942,20003 9942,18098 Z"/></g><g/></g></g><g><desc>Drawing</desc><g><g style="stroke:none;fill:rgb(148,189,94)"><path d="M 10577,18098 L 9798,18059 9041,17943 8311,17755 7611,17499 6945,17178 6317,16797 5730,16358 5189,15866 4697,15325 4258,14738 3877,14110 3556,13444 3300,12744 3112,12014 2996,11257 2957,10478 2996,9699 3112,8942 3300,8212 3556,7512 3877,6846 4258,6218 4697,5631 5189,5090 5730,4598 6317,4159 6945,3778 7611,3457 8311,3201 9041,3013 9798,2897 10577,2858 11356,2897 12113,3013 12843,3201 13543,3457 14209,3778 14837,4159 15424,4598 15965,5090 16457,5631 16896,6218 17277,6846 17598,7512 17854,8212 18042,8942 18158,9699 18197,10478 18158,11257 18042,12014 17854,12744 17598,13444 17277,14110 16896,14738 16457,15325 15965,15866 15424,16358 14837,16797 14209,17178 13543,17499 12843,17755 12113,17943 11356,18059 10577,18098 Z M 10577,16828 L 11226,16795 11857,16699 12465,16543 13049,16329 13604,16062 14127,15744 14616,15378 15067,14968 15477,14517 15843,14028 16161,13505 16428,12950 16642,12366 16798,11758 16894,11127 16927,10478 16894,9829 16798,9198 16642,8590 16428,8006 16161,7451 15843,6928 15477,6439 15067,5988 14616,5578 14127,5212 13604,4894 13049,4627 12465,4413 11857,4257 11226,4161 10577,4128 9928,4161 9297,4257 8689,4413 8105,4627 7550,4894 7027,5212 6538,5578 6087,5988 5677,6439 5311,6928 4993,7451 4726,8006 4512,8590 4356,9198 4260,9829 4227,10478 4260,11127 4356,11758 4512,12366 4726,12950 4993,13505 5311,14028 5677,14517 6087,14968 6538,15378 7027,15744 7550,16062 8105,16329 8689,16543 9297,16699 9928,16795 10577,16828 Z"/></g><g/></g></g><g><desc>Drawing</desc><g><g style="stroke:none;fill:rgb(148,189,94)"><path d="M 10511,12383 L 9927,12373 9359,12344 8812,12297 8286,12233 7788,12153 7316,12058 6875,11948 6470,11825 6101,11690 5772,11543 5486,11386 5245,11219 5052,11044 4912,10862 4826,10673 4796,10478 4826,10283 4912,10094 5052,9911 5245,9736 5486,9570 5772,9413 6101,9266 6470,9131 6875,9008 7316,8898 7788,8803 8286,8723 8812,8659 9359,8612 9927,8583 10511,8573 11095,8583 11663,8612 12210,8659 12736,8723 13234,8803 13706,8898 14147,9008 14552,9131 14921,9266 15250,9413 15536,9570 15777,9736 15970,9911 16110,10094 16196,10283 16226,10478 16196,10673 16110,10862 15970,11044 15777,11219 15536,11386 15250,11543 14921,11690 14552,11825 14147,11948 13706,12058 13234,12153 12736,12233 12210,12297 11663,12344 11095,12373 10511,12383 Z M 10511,12065 L 10998,12057 11471,12033 11928,11994 12365,11941 12781,11874 13173,11794 13540,11703 13879,11600 14187,11488 14460,11365 14700,11235 14898,11096 15060,10950 15177,10798 15250,10640 15273,10478 15250,10316 15177,10158 15060,10006 14898,9860 14700,9721 14460,9590 14187,9468 13879,9355 13540,9253 13173,9161 12781,9082 12365,9015 11928,8962 11471,8923 10998,8899 10511,8890 10024,8899 9551,8923 9094,8962 8657,9015 8241,9082 7849,9161 7482,9253 7143,9355 6835,9468 6562,9590 6322,9721 6124,9860 5962,10006 5845,10158 5772,10316 5749,10478 5772,10640 5845,10798 5962,10950 6124,11096 6322,11235 6562,11365 6835,11488 7143,11600 7482,11703 7849,11794 8241,11874 8657,11941 9094,11994 9551,12033 10024,12057 10511,12065 Z"/></g><g/></g></g><g><desc>Drawing</desc><g><g style="stroke:none;fill:rgb(255,0,0)"><path d="M 10501,20003 L 10501,19495 10653,19495 10653,20003 10501,20003 Z"/><path d="M 10501,18987 L 10501,18479 10653,18479 10653,18987 10501,18987 Z"/><path d="M 10501,17971 L 10501,17463 10653,17463 10653,17971 10501,17971 Z"/><path d="M 10501,16955 L 10501,16447 10653,16447 10653,16955 10501,16955 Z"/><path d="M 10501,15939 L 10501,15431 10653,15431 10653,15939 10501,15939 Z"/><path d="M 10501,14923 L 10501,14415 10653,14415 10653,14923 10501,14923 Z"/><path d="M 10501,13907 L 10501,13399 10653,13399 10653,13907 10501,13907 Z"/><path d="M 10501,12891 L 10501,12383 10653,12383 10653,12891 10501,12891 Z"/><path d="M 10501,11875 L 10501,11367 10653,11367 10653,11875 10501,11875 Z"/><path d="M 10501,10859 L 10501,10351 10653,10351 10653,10859 10501,10859 Z"/><path d="M 10501,9843 L 10501,9335 10653,9335 10653,9843 10501,9843 Z"/><path d="M 10501,8827 L 10501,8319 10653,8319 10653,8827 10501,8827 Z"/><path d="M 10501,7811 L 10501,7303 10653,7303 10653,7811 10501,7811 Z"/><path d="M 10501,6795 L 10501,6287 10653,6287 10653,6795 10501,6795 Z"/><path d="M 10501,5779 L 10501,5271 10653,5271 10653,5779 10501,5779 Z"/><path d="M 10501,4763 L 10501,4255 10653,4255 10653,4763 10501,4763 Z"/><path d="M 10501,3747 L 10501,3239 10653,3239 10653,3747 10501,3747 Z"/><path d="M 10501,2731 L 10501,2223 10653,2223 10653,2731 10501,2731 Z"/><path d="M 10501,1715 L 10501,1207 10653,1207 10653,1715 10501,1715 Z"/></g><g/></g></g><g><desc>Drawing</desc><g><g style="stroke:none;fill:rgb(0,0,0)"><path d="M 11084,954 L 11699,689 11589,1392 11084,954 Z"/><path d="M 11542,969 L 11652,990 11642,1040 11633,1090 11523,1069 11533,1019 11542,969 Z"/><path d="M 11642,1040 L 11652,990 11656,991 11642,1040 Z"/><path d="M 11656,991 L 11894,1056 11881,1105 11867,1154 11629,1089 11642,1040 11656,991 Z"/><path d="M 11881,1105 L 11894,1056 11897,1057 11881,1105 Z"/><path d="M 11897,1057 L 12004,1093 11987,1142 11971,1190 11864,1153 11881,1105 11897,1057 Z"/><path d="M 11987,1142 L 12004,1093 12006,1094 11987,1142 Z"/><path d="M 12006,1094 L 12104,1134 12085,1181 12066,1229 11968,1189 11987,1142 12006,1094 Z"/><path d="M 12085,1181 L 12104,1134 12107,1135 12085,1181 Z"/><path d="M 12107,1135 L 12196,1177 12174,1223 12152,1270 12063,1227 12085,1181 12107,1135 Z"/><path d="M 12174,1223 L 12196,1177 12199,1179 12174,1223 Z"/><path d="M 12199,1179 L 12277,1224 12252,1268 12227,1312 12148,1268 12174,1223 12199,1179 Z"/><path d="M 12252,1268 L 12277,1224 12281,1226 12252,1268 Z"/><path d="M 12281,1226 L 12349,1273 12320,1315 12291,1357 12223,1310 12252,1268 12281,1226 Z"/><path d="M 12320,1315 L 12349,1273 12353,1276 12320,1315 Z"/><path d="M 12353,1276 L 12410,1325 12377,1364 12344,1403 12287,1354 12320,1315 12353,1276 Z"/><path d="M 12377,1364 L 12410,1325 12415,1330 12377,1364 Z"/><path d="M 12415,1330 L 12460,1381 12422,1415 12384,1449 12339,1398 12377,1364 12415,1330 Z"/><path d="M 12422,1415 L 12460,1381 12464,1386 12422,1415 Z"/><path d="M 12464,1386 L 12482,1412 12440,1441 12398,1470 12380,1444 12422,1415 12464,1386 Z"/><path d="M 12440,1441 L 12482,1412 12484,1416 12440,1441 Z"/><path d="M 12484,1416 L 12499,1442 12455,1467 12411,1492 12396,1466 12440,1441 12484,1416 Z"/><path d="M 12455,1467 L 12499,1442 12502,1447 12455,1467 Z"/><path d="M 12502,1447 L 12513,1473 12467,1494 12420,1514 12408,1487 12455,1467 12502,1447 Z"/><path d="M 12467,1494 L 12513,1473 12515,1479 12467,1494 Z"/><path d="M 12515,1479 L 12524,1506 12475,1521 12426,1536 12418,1509 12467,1494 12515,1479 Z"/><path d="M 12475,1521 L 12524,1506 12525,1512 12475,1521 Z"/><path d="M 12525,1512 L 12530,1539 12480,1548 12430,1558 12425,1530 12475,1521 12525,1512 Z"/><path d="M 12480,1548 L 12530,1539 12531,1545 12480,1548 Z"/><path d="M 12531,1545 L 12533,1573 12482,1576 12431,1579 12429,1551 12480,1548 12531,1545 Z"/><path d="M 12482,1576 L 12533,1573 12533,1580 12482,1576 Z"/><path d="M 12533,1580 L 12530,1613 12480,1609 12429,1605 12431,1572 12482,1576 12533,1580 Z"/><path d="M 12480,1609 L 12530,1613 12529,1620 12480,1609 Z"/><path d="M 12529,1620 L 12522,1653 12472,1642 12422,1631 12430,1598 12480,1609 12529,1620 Z"/><path d="M 12472,1642 L 12522,1653 12520,1660 12472,1642 Z"/><path d="M 12520,1660 L 12508,1692 12460,1674 12412,1657 12424,1624 12472,1642 12520,1660 Z"/><path d="M 12460,1674 L 12508,1692 12505,1698 12460,1674 Z"/><path d="M 12505,1698 L 12488,1730 12443,1706 12398,1683 12415,1651 12460,1674 12505,1698 Z"/><path d="M 12443,1706 L 12488,1730 12485,1735 12443,1706 Z"/><path d="M 12485,1735 L 12464,1766 12422,1738 12380,1709 12401,1678 12443,1706 12485,1735 Z"/><path d="M 12422,1738 L 12464,1766 12461,1770 12422,1738 Z"/><path d="M 12461,1770 L 12435,1801 12396,1768 12357,1736 12383,1705 12422,1738 12461,1770 Z"/><path d="M 12396,1768 L 12435,1801 12431,1806 12396,1768 Z"/><path d="M 12431,1806 L 12367,1865 12332,1828 12298,1790 12362,1731 12396,1768 12431,1806 Z"/><path d="M 12332,1828 L 12367,1865 12362,1869 12332,1828 Z"/><path d="M 12362,1869 L 12281,1926 12252,1884 12223,1843 12303,1786 12332,1828 12362,1869 Z"/><path d="M 12252,1884 L 12281,1926 12277,1929 12252,1884 Z"/><path d="M 12277,1929 L 12182,1982 12157,1938 12132,1893 12227,1840 12252,1884 12277,1929 Z"/><path d="M 12157,1938 L 12182,1982 12178,1984 12157,1938 Z"/><path d="M 12178,1984 L 12068,2034 12047,1987 12026,1941 12136,1891 12157,1938 12178,1984 Z"/><path d="M 12047,1987 L 12068,2034 12065,2035 12047,1987 Z"/><path d="M 12065,2035 L 11942,2081 11924,2033 11906,1986 12029,1940 12047,1987 12065,2035 Z"/><path d="M 11924,2033 L 11942,2081 11939,2082 11924,2033 Z"/><path d="M 11939,2082 L 11804,2124 11789,2075 11774,2026 11909,1985 11924,2033 11939,2082 Z"/><path d="M 11789,2075 L 11804,2124 11801,2125 11789,2075 Z"/><path d="M 11801,2125 L 11655,2162 11642,2112 11629,2063 11776,2026 11789,2075 11801,2125 Z"/><path d="M 11642,2112 L 11655,2162 11651,2163 11642,2112 Z"/><path d="M 11651,2163 L 11328,2222 11318,2172 11309,2122 11633,2062 11642,2112 11651,2163 Z"/><path d="M 11318,2172 L 11328,2222 11324,2223 11318,2172 Z"/><path d="M 11324,2223 L 10966,2261 10961,2210 10956,2159 11313,2121 11318,2172 11324,2223 Z"/><path d="M 10961,2210 L 10966,2261 10963,2261 10961,2210 Z"/><path d="M 10963,2261 L 10579,2274 10577,2223 10575,2172 10959,2159 10961,2210 10963,2261 Z"/><path d="M 10577,2223 L 10579,2274 10575,2274 10577,2223 Z"/><path d="M 10575,2274 L 10191,2261 10193,2210 10195,2159 10579,2172 10577,2223 10575,2274 Z"/><path d="M 10193,2210 L 10191,2261 10188,2261 10193,2210 Z"/><path d="M 10188,2261 L 9830,2223 9836,2172 9841,2121 10198,2159 10193,2210 10188,2261 Z"/><path d="M 9836,2172 L 9830,2223 9826,2222 9836,2172 Z"/><path d="M 9826,2222 L 9503,2163 9512,2112 9521,2062 9845,2122 9836,2172 9826,2222 Z"/><path d="M 9512,2112 L 9503,2163 9499,2162 9512,2112 Z"/><path d="M 9499,2162 L 9353,2125 9365,2075 9378,2026 9525,2063 9512,2112 9499,2162 Z"/><path d="M 9365,2075 L 9353,2125 9350,2124 9365,2075 Z"/><path d="M 9350,2124 L 9215,2082 9230,2033 9245,1985 9380,2026 9365,2075 9350,2124 Z"/><path d="M 9230,2033 L 9215,2082 9212,2081 9230,2033 Z"/><path d="M 9212,2081 L 9089,2035 9107,1987 9125,1940 9248,1986 9230,2033 9212,2081 Z"/><path d="M 9107,1987 L 9089,2035 9086,2034 9107,1987 Z"/><path d="M 9086,2034 L 8976,1984 8997,1938 9018,1891 9128,1941 9107,1987 9086,2034 Z"/><path d="M 8997,1938 L 8976,1984 8972,1982 8997,1938 Z"/><path d="M 8972,1982 L 8877,1929 8902,1884 8927,1840 9022,1893 8997,1938 8972,1982 Z"/><path d="M 8902,1884 L 8877,1929 8873,1926 8902,1884 Z"/><path d="M 8873,1926 L 8792,1869 8822,1828 8851,1786 8931,1843 8902,1884 8873,1926 Z"/><path d="M 8822,1828 L 8792,1869 8787,1865 8822,1828 Z"/><path d="M 8787,1865 L 8723,1806 8758,1768 8792,1731 8856,1790 8822,1828 8787,1865 Z"/><path d="M 8758,1768 L 8723,1806 8719,1801 8758,1768 Z"/><path d="M 8719,1801 L 8693,1770 8732,1738 8771,1705 8797,1736 8758,1768 8719,1801 Z"/><path d="M 8732,1738 L 8693,1770 8690,1766 8732,1738 Z"/><path d="M 8690,1766 L 8669,1735 8711,1706 8753,1678 8774,1709 8732,1738 8690,1766 Z"/><path d="M 8711,1706 L 8669,1735 8666,1730 8711,1706 Z"/><path d="M 8666,1730 L 8649,1698 8694,1674 8739,1651 8756,1683 8711,1706 8666,1730 Z"/><path d="M 8694,1674 L 8649,1698 8646,1692 8694,1674 Z"/><path d="M 8646,1692 L 8634,1660 8682,1642 8730,1624 8742,1657 8694,1674 8646,1692 Z"/><path d="M 8682,1642 L 8634,1660 8632,1653 8682,1642 Z"/><path d="M 8632,1653 L 8625,1620 8674,1609 8724,1598 8732,1631 8682,1642 8632,1653 Z"/><path d="M 8674,1609 L 8625,1620 8624,1613 8674,1609 Z"/><path d="M 8624,1613 L 8621,1580 8672,1576 8723,1572 8725,1605 8674,1609 8624,1613 Z"/></g><g/></g></g><g><desc>Drawing</desc><g><g style="stroke:none;fill:rgb(92,133,38)"><path d="M 16226,10143 L 16861,10143 16861,10778 16226,10778 16226,10143 Z"/></g><g/></g></g><g><desc>Drawing</desc><g><g style="stroke:none;fill:rgb(0,0,255)"><path d="M 20036,10554 L 19528,10554 19528,10402 20036,10402 20036,10554 Z"/><path d="M 19020,10554 L 18512,10554 18512,10402 19020,10402 19020,10554 Z"/><path d="M 18004,10554 L 17496,10554 17496,10402 18004,10402 18004,10554 Z"/><path d="M 16988,10554 L 16480,10554 16480,10402 16988,10402 16988,10554 Z"/><path d="M 15972,10554 L 15464,10554 15464,10402 15972,10402 15972,10554 Z"/><path d="M 14956,10554 L 14448,10554 14448,10402 14956,10402 14956,10554 Z"/><path d="M 13940,10554 L 13432,10554 13432,10402 13940,10402 13940,10554 Z"/><path d="M 12924,10554 L 12416,10554 12416,10402 12924,10402 12924,10554 Z"/><path d="M 11908,10554 L 11400,10554 11400,10402 11908,10402 11908,10554 Z"/><path d="M 10892,10554 L 10384,10554 10384,10402 10892,10402 10892,10554 Z"/><path d="M 9876,10554 L 9368,10554 9368,10402 9876,10402 9876,10554 Z"/><path d="M 8860,10554 L 8352,10554 8352,10402 8860,10402 8860,10554 Z"/><path d="M 7844,10554 L 7336,10554 7336,10402 7844,10402 7844,10554 Z"/><path d="M 6828,10554 L 6320,10554 6320,10402 6828,10402 6828,10554 Z"/><path d="M 5812,10554 L 5304,10554 5304,10402 5812,10402 5812,10554 Z"/><path d="M 4796,10554 L 4288,10554 4288,10402 4796,10402 4796,10554 Z"/><path d="M 3780,10554 L 3272,10554 3272,10402 3780,10402 3780,10554 Z"/><path d="M 2764,10554 L 2256,10554 2256,10402 2764,10402 2764,10554 Z"/><path d="M 1748,10554 L 1240,10554 1240,10402 1748,10402 1748,10554 Z"/></g><g/></g></g><g><desc>Drawing</desc><g><g style="stroke:none;fill:rgb(0,0,0)"><path d="M 987,9971 L 722,9356 1425,9466 987,9971 Z"/><path d="M 1002,9513 L 1023,9403 1073,9413 1123,9422 1102,9532 1052,9522 1002,9513 Z"/><path d="M 1073,9413 L 1023,9403 1024,9399 1073,9413 Z"/><path d="M 1024,9399 L 1089,9161 1138,9174 1187,9188 1122,9426 1073,9413 1024,9399 Z"/><path d="M 1138,9174 L 1089,9161 1090,9158 1138,9174 Z"/><path d="M 1090,9158 L 1126,9051 1175,9068 1223,9084 1186,9191 1138,9174 1090,9158 Z"/><path d="M 1175,9068 L 1126,9051 1127,9049 1175,9068 Z"/><path d="M 1127,9049 L 1167,8951 1214,8970 1262,8989 1222,9087 1175,9068 1127,9049 Z"/><path d="M 1214,8970 L 1167,8951 1168,8948 1214,8970 Z"/><path d="M 1168,8948 L 1210,8859 1256,8881 1303,8903 1260,8992 1214,8970 1168,8948 Z"/><path d="M 1256,8881 L 1210,8859 1212,8856 1256,8881 Z"/><path d="M 1212,8856 L 1257,8778 1301,8803 1345,8828 1301,8907 1256,8881 1212,8856 Z"/><path d="M 1301,8803 L 1257,8778 1259,8774 1301,8803 Z"/><path d="M 1259,8774 L 1306,8706 1348,8735 1390,8764 1343,8832 1301,8803 1259,8774 Z"/><path d="M 1348,8735 L 1306,8706 1309,8702 1348,8735 Z"/><path d="M 1309,8702 L 1358,8645 1397,8678 1436,8711 1387,8768 1348,8735 1309,8702 Z"/><path d="M 1397,8678 L 1358,8645 1363,8640 1397,8678 Z"/><path d="M 1363,8640 L 1414,8595 1448,8633 1482,8671 1431,8716 1397,8678 1363,8640 Z"/><path d="M 1448,8633 L 1414,8595 1419,8591 1448,8633 Z"/><path d="M 1419,8591 L 1445,8573 1474,8615 1503,8657 1477,8675 1448,8633 1419,8591 Z"/><path d="M 1474,8615 L 1445,8573 1449,8571 1474,8615 Z"/><path d="M 1449,8571 L 1475,8556 1500,8600 1525,8644 1499,8659 1474,8615 1449,8571 Z"/><path d="M 1500,8600 L 1475,8556 1480,8553 1500,8600 Z"/><path d="M 1480,8553 L 1506,8542 1527,8588 1547,8635 1520,8647 1500,8600 1480,8553 Z"/><path d="M 1527,8588 L 1506,8542 1512,8540 1527,8588 Z"/><path d="M 1512,8540 L 1539,8531 1554,8580 1569,8629 1542,8637 1527,8588 1512,8540 Z"/><path d="M 1554,8580 L 1539,8531 1545,8530 1554,8580 Z"/><path d="M 1545,8530 L 1572,8525 1581,8575 1591,8625 1563,8630 1554,8580 1545,8530 Z"/><path d="M 1581,8575 L 1572,8525 1578,8524 1581,8575 Z"/><path d="M 1578,8524 L 1606,8522 1609,8573 1612,8624 1584,8626 1581,8575 1578,8524 Z"/><path d="M 1609,8573 L 1606,8522 1613,8522 1609,8573 Z"/><path d="M 1613,8522 L 1646,8525 1642,8575 1638,8626 1605,8624 1609,8573 1613,8522 Z"/><path d="M 1642,8575 L 1646,8525 1653,8526 1642,8575 Z"/><path d="M 1653,8526 L 1686,8533 1675,8583 1664,8633 1631,8625 1642,8575 1653,8526 Z"/><path d="M 1675,8583 L 1686,8533 1693,8535 1675,8583 Z"/><path d="M 1693,8535 L 1725,8547 1707,8595 1690,8643 1657,8631 1675,8583 1693,8535 Z"/><path d="M 1707,8595 L 1725,8547 1731,8550 1707,8595 Z"/><path d="M 1731,8550 L 1763,8567 1739,8612 1716,8657 1684,8640 1707,8595 1731,8550 Z"/><path d="M 1739,8612 L 1763,8567 1768,8570 1739,8612 Z"/><path d="M 1768,8570 L 1799,8591 1771,8633 1742,8675 1711,8654 1739,8612 1768,8570 Z"/><path d="M 1771,8633 L 1799,8591 1803,8594 1771,8633 Z"/><path d="M 1803,8594 L 1834,8620 1801,8659 1769,8698 1738,8672 1771,8633 1803,8594 Z"/><path d="M 1801,8659 L 1834,8620 1839,8624 1801,8659 Z"/><path d="M 1839,8624 L 1898,8688 1861,8723 1823,8757 1764,8693 1801,8659 1839,8624 Z"/><path d="M 1861,8723 L 1898,8688 1902,8693 1861,8723 Z"/><path d="M 1902,8693 L 1959,8774 1917,8803 1876,8832 1819,8752 1861,8723 1902,8693 Z"/><path d="M 1917,8803 L 1959,8774 1962,8778 1917,8803 Z"/><path d="M 1962,8778 L 2015,8873 1971,8898 1926,8923 1873,8828 1917,8803 1962,8778 Z"/><path d="M 1971,8898 L 2015,8873 2017,8877 1971,8898 Z"/><path d="M 2017,8877 L 2067,8987 2020,9008 1974,9029 1924,8919 1971,8898 2017,8877 Z"/><path d="M 2020,9008 L 2067,8987 2068,8990 2020,9008 Z"/><path d="M 2068,8990 L 2114,9113 2066,9131 2019,9149 1973,9026 2020,9008 2068,8990 Z"/><path d="M 2066,9131 L 2114,9113 2115,9116 2066,9131 Z"/><path d="M 2115,9116 L 2157,9251 2108,9266 2059,9281 2018,9146 2066,9131 2115,9116 Z"/><path d="M 2108,9266 L 2157,9251 2158,9254 2108,9266 Z"/><path d="M 2158,9254 L 2195,9400 2145,9413 2096,9426 2059,9279 2108,9266 2158,9254 Z"/><path d="M 2145,9413 L 2195,9400 2196,9404 2145,9413 Z"/><path d="M 2196,9404 L 2255,9727 2205,9737 2155,9746 2095,9422 2145,9413 2196,9404 Z"/><path d="M 2205,9737 L 2255,9727 2256,9731 2205,9737 Z"/><path d="M 2256,9731 L 2294,10089 2243,10094 2192,10099 2154,9742 2205,9737 2256,9731 Z"/><path d="M 2243,10094 L 2294,10089 2294,10092 2243,10094 Z"/><path d="M 2294,10092 L 2307,10476 2256,10478 2205,10480 2192,10096 2243,10094 2294,10092 Z"/><path d="M 2256,10478 L 2307,10476 2307,10480 2256,10478 Z"/><path d="M 2307,10480 L 2294,10864 2243,10862 2192,10860 2205,10476 2256,10478 2307,10480 Z"/><path d="M 2243,10862 L 2294,10864 2294,10867 2243,10862 Z"/><path d="M 2294,10867 L 2256,11225 2205,11219 2154,11214 2192,10857 2243,10862 2294,10867 Z"/><path d="M 2205,11219 L 2256,11225 2255,11229 2205,11219 Z"/><path d="M 2255,11229 L 2196,11552 2145,11543 2095,11534 2155,11210 2205,11219 2255,11229 Z"/><path d="M 2145,11543 L 2196,11552 2195,11556 2145,11543 Z"/><path d="M 2195,11556 L 2158,11702 2108,11690 2059,11677 2096,11530 2145,11543 2195,11556 Z"/><path d="M 2108,11690 L 2158,11702 2157,11705 2108,11690 Z"/><path d="M 2157,11705 L 2115,11840 2066,11825 2018,11810 2059,11675 2108,11690 2157,11705 Z"/><path d="M 2066,11825 L 2115,11840 2114,11843 2066,11825 Z"/><path d="M 2114,11843 L 2068,11966 2020,11948 1973,11930 2019,11807 2066,11825 2114,11843 Z"/><path d="M 2020,11948 L 2068,11966 2067,11969 2020,11948 Z"/><path d="M 2067,11969 L 2017,12079 1971,12058 1924,12037 1974,11927 2020,11948 2067,11969 Z"/><path d="M 1971,12058 L 2017,12079 2015,12083 1971,12058 Z"/><path d="M 2015,12083 L 1962,12178 1917,12153 1873,12128 1926,12033 1971,12058 2015,12083 Z"/><path d="M 1917,12153 L 1962,12178 1959,12182 1917,12153 Z"/><path d="M 1959,12182 L 1902,12263 1861,12233 1819,12204 1876,12124 1917,12153 1959,12182 Z"/><path d="M 1861,12233 L 1902,12263 1898,12268 1861,12233 Z"/><path d="M 1898,12268 L 1839,12332 1801,12297 1764,12263 1823,12199 1861,12233 1898,12268 Z"/><path d="M 1801,12297 L 1839,12332 1834,12336 1801,12297 Z"/><path d="M 1834,12336 L 1803,12362 1771,12323 1738,12284 1769,12258 1801,12297 1834,12336 Z"/><path d="M 1771,12323 L 1803,12362 1799,12365 1771,12323 Z"/><path d="M 1799,12365 L 1768,12386 1739,12344 1711,12302 1742,12281 1771,12323 1799,12365 Z"/><path d="M 1739,12344 L 1768,12386 1763,12389 1739,12344 Z"/><path d="M 1763,12389 L 1731,12406 1707,12361 1684,12316 1716,12299 1739,12344 1763,12389 Z"/><path d="M 1707,12361 L 1731,12406 1725,12409 1707,12361 Z"/><path d="M 1725,12409 L 1693,12421 1675,12373 1657,12325 1690,12313 1707,12361 1725,12409 Z"/><path d="M 1675,12373 L 1693,12421 1686,12423 1675,12373 Z"/><path d="M 1686,12423 L 1653,12430 1642,12381 1631,12331 1664,12323 1675,12373 1686,12423 Z"/><path d="M 1642,12381 L 1653,12430 1646,12431 1642,12381 Z"/><path d="M 1646,12431 L 1613,12434 1609,12383 1605,12332 1638,12330 1642,12381 1646,12431 Z"/></g><g/></g></g></g></svg>